<svg xmlns="http://www.w3.org/2000/svg" viewBox="52 23 63 145" fill="none" role="img" aria-label="SIMPL">
  <path fill-rule="evenodd" clip-rule="evenodd" d="M90 113C91.05 113.79 92.12 113.79 93.21 112.99C91.95 123.34 90.75 133.7 89.62 144.07C89.41 146.6 86.11 147.15 85.67 144.56C83.74 116.87 82.28 89.14 80.89 61.43C80.86 60.97 80.83 59.14 79.98 60.4C78.69 73.88 76.48 87.05 75.77 100.47C75.42 102.59 75.27 104.49 72.52 104.28C67.83 104.21 63.15 104.23 58.46 104.33C55.47 104.8 54.68 101.1 57.43 100.65C61.63 100.62 65.82 100.56 70.02 100.47C70.87 100.47 71.52 100.13 71.98 99.44C74.67 75.53 77.08 51.56 79.18 27.58C79.26 27.1 79.51 26.74 79.91 26.48C82.03 25.61 83.14 26.31 83.24 28.57C84.34 50.54 85.38 72.52 86.35 94.5C86.86 104.58 87.57 114.65 88.47 124.68C88.75 120.76 89.26 116.86 90 113Z" fill="#0E0F10"/>
  <path fill-rule="evenodd" clip-rule="evenodd" d="M93.21 112.99C92.12 113.79 91.05 113.79 90 113C90.29 109.52 90.75 106.08 91.37 102.65C91.59 102.02 92.01 101.56 92.63 101.28C95.09 100.5 112.45 99.65 111.65 103.29C110.15 106.67 96.37 102.97 94.24 105.66C94.14 108.14 93.79 110.58 93.21 112.99Z" fill="#0E0F10"/>
  <path fill-rule="evenodd" clip-rule="evenodd" d="M80.04 158.01C83.1 146.03 99.25 157.01 88.43 164.03C83.47 165.06 80.67 163.05 80.04 158.01Z" fill="#5AB4DE"/>
</svg>
