<svg xmlns="http://www.w3.org/2000/svg" viewBox="0 0 729 221" fill="none" role="img" aria-label="SIMPL">
  <path fill-rule="evenodd" clip-rule="evenodd" d="M202.25 118.92C202.13 117.91 202.55 117.25 203.51 116.96C208.17 116.79 212.84 116.74 217.51 116.82C218.32 116.91 219.02 116.7 219.61 116.19C222.31 91.39 225.15 66.39 227.17 41.52C227.06 38.15 231.19 38.2 231.18 40.46C231.68 48.48 232.21 56.49 232.76 64.5C234.16 90.9 235.39 117.3 236.45 143.69C236.75 142.53 237.13 141.4 237.58 140.29C238.22 133.35 239.02 126.42 239.99 119.51C240.02 118.95 240.25 118.49 240.67 118.12C243.6 116.48 255.63 118 259.61 117.49C261.31 117.84 261.82 118.84 261.14 120.47C259.66 122.47 244.83 120.11 243.33 121.79C241.37 135.65 239.57 149.52 237.94 163.42C236.94 164.88 235.06 164.9 234.06 163.43C232.42 137.83 230.99 112.14 229.87 86.5C229.38 81.38 228.89 76.27 228.39 71.18C226.68 87.29 224.92 103.4 223.1 119.52C222.52 120.5 221.65 120.93 220.49 120.81C215.16 120.78 209.84 120.77 204.51 120.78C203.17 120.87 202.41 120.25 202.25 118.92ZM83.99 135.97C84.63 136.73 85.46 137.07 86.49 136.98C94.5 136.88 102.51 136.9 110.52 137.04C111.55 137.1 112.39 136.74 113.05 135.97C119.84 134.22 116.74 123.04 117.39 118.04C116.05 103.13 71.47 117.2 69.83 93.5C69.76 82.41 67.21 68.32 81.52 65.65C92.86 65.51 104.19 65.58 115.52 65.87C126.27 68.34 127.19 77.07 126.39 86.58C126.34 87.22 126.02 87.68 125.45 87.97C123.88 87.98 117.9 88.64 116.98 87.44C116.83 84.64 116.61 81.84 116.32 79.05C115.75 77.04 114.47 75.71 112.48 75.07C103.49 74.81 94.49 74.74 85.48 74.87C77.12 75.65 80.51 85.88 79.82 91.5C79.52 106.71 128.38 91.46 127.25 117.5C127.16 129.11 130.09 144.44 113.5 144.98C102.84 144.97 92.18 144.92 81.52 144.84C70.79 142.88 69.08 135.09 69.75 125.48C69.44 123.97 70.01 123.1 71.46 122.85C73.08 123.08 78.1 122.33 79.19 123.35C79.54 125.71 79.72 128.1 79.72 130.52C79.9 133.32 81.33 135.13 83.99 135.97ZM331.18 72C331.39 70.71 330.71 66.91 331.66 66.08C334.25 65.72 336.86 65.58 339.5 65.67C340.48 65.58 341.4 65.75 342.27 66.17C351 82.52 359.69 98.9 368.33 115.31C368.62 116.22 369.23 116.65 370.15 116.6C379.09 100.12 387.82 83.52 396.37 66.8C396.86 66.08 397.54 65.71 398.43 65.72C401.44 65.62 404.43 65.71 407.41 66.01C407.94 66.74 408.14 67.57 408.01 68.49C408.02 93.49 408.01 118.5 407.96 143.5C407.9 144.41 407.41 144.9 406.5 144.95C404.18 145.04 401.87 145 399.57 144.83C398.51 144.43 398.1 143.64 398.33 142.46C398.31 124.81 398.31 107.16 398.33 89.5C398.19 88.31 398.57 86.06 397.49 85.24C391.27 100.12 381.55 115.87 373.9 130.35C373.02 131.64 366 131.65 365.15 130.31C357.26 115.29 349.38 100.29 341.5 85.32C341.06 85.97 340.86 86.71 340.91 87.52C340.92 106.18 340.92 124.83 340.92 143.49C340.87 144.39 340.39 144.87 339.49 144.94C338.03 144.76 332.06 145.62 331.37 144.22C331.23 120.15 331.17 96.08 331.18 72ZM496.05 77C496.05 73.54 496.09 70.07 496.15 66.61C496.41 66.08 496.84 65.8 497.45 65.77C512.46 65.63 527.48 65.63 542.49 65.78C558.65 68.68 551.83 91.04 553.11 102.51C552.32 109.47 548.45 113.39 541.51 114.28C529.76 114.45 518.03 114.64 506.31 114.85C505.97 115.32 505.81 115.85 505.82 116.44C505.8 125.45 505.79 134.45 505.77 143.46C505.8 143.96 505.62 144.38 505.23 144.7C502.67 144.99 500.09 145.07 497.51 144.94C496.6 144.88 496.13 144.4 496.09 143.49C496.09 121.33 496.07 99.16 496.05 77ZM684.82 137.04C681.37 136.49 684.05 141.36 682.4 142.99C679.46 143.15 676.5 143.19 673.54 143.13C672.18 143.39 670.84 143.69 669.5 144.05C668.18 143.61 666.83 143.26 665.46 143C659.81 143.16 654.15 143.17 648.49 143.03C646.11 143.03 643.77 143.29 641.47 143.82C639.23 143.7 639.24 141.22 637.54 140.3C637.04 141.83 636.53 143.36 636.01 144.89C635.25 144.31 634.93 143.52 635.05 142.51C635.07 117.51 635.08 92.51 635.07 67.5C635.05 66.54 635.52 65.97 636.46 65.8C638.48 65.7 640.5 65.66 642.53 65.69C643.46 65.63 644.17 65.97 644.66 66.72C644.59 89.63 644.7 112.53 645.01 135.41C645.4 135.86 645.89 136.06 646.48 136.02C658.49 136.03 670.5 136.04 682.52 136.05C683.5 135.95 684.27 136.28 684.82 137.04ZM505.77 94C505.82 97.18 505.82 100.35 505.79 103.53C505.72 104.42 506.04 105.13 506.75 105.64C516.33 105.75 525.92 105.78 535.5 105.74C547.83 106.55 542.38 88.91 543.52 81.56C543.58 77.42 541.57 75.18 537.51 74.81C527.18 74.69 516.86 74.75 506.54 74.99C506.04 75.34 505.8 75.83 505.82 76.45C505.78 82.3 505.77 88.15 505.77 94Z" fill="#EDEBE4"/>
  <path fill-rule="evenodd" clip-rule="evenodd" d="M684.82 137.04C684.97 139.18 684.99 141.32 684.85 143.47C684.8 144.34 684.35 144.82 683.48 144.91C667.66 145 651.84 144.99 636.01 144.89C636.53 143.36 637.04 141.83 637.54 140.3C639.24 141.22 639.23 143.7 641.47 143.82C643.77 143.29 646.11 143.03 648.49 143.03C654.15 143.17 659.81 143.16 665.46 143C666.83 143.26 668.18 143.61 669.5 144.05C670.84 143.69 672.18 143.39 673.54 143.13C676.5 143.19 679.46 143.15 682.4 142.99C684.05 141.36 681.37 136.49 684.82 137.04Z" fill="#EDEBE4"/>
  <path fill-rule="evenodd" clip-rule="evenodd" d="M228.07 179C228.32 171.46 237.66 169.17 240.45 176.27C243.44 185.57 229.88 188.97 228.07 179Z" fill="#89CFF0"/>
</svg>
