<svg xmlns="http://www.w3.org/2000/svg" viewBox="0 0 868.5 220.79" fill="none" role="img" aria-label="SIMPL">
  <path fill-rule="evenodd" clip-rule="evenodd" d="M41.9071 137.994C42.1658 136.674 41.312 132.517 42.6833 131.905C45.2879 131.776 47.8926 131.733 50.5058 131.784C51.3941 131.836 51.8858 132.302 51.9634 133.199C52.0496 138.925 50.937 145.886 59.0787 145.549C67.7033 145.566 76.3279 145.549 84.9526 145.515C94.1723 145.152 90.3171 132.483 91.0329 126.523C90.8173 112.241 48.2979 124.264 42.2779 104.789C42.0451 103.358 41.9243 101.926 41.9329 100.477C42.3383 89.4546 38.9229 75.9571 53.0673 72.5848C64.8399 72.352 76.6212 72.3175 88.4024 72.49C99.6921 74.6979 101.244 83.6157 100.451 93.6117C100.451 94.431 100.106 95.0261 99.3988 95.397C97.0357 95.3884 92.9304 95.8368 90.8691 95.0002C90.6966 91.9989 90.4551 88.9889 90.1446 85.9875C89.5409 84.1246 88.3421 82.8395 86.5481 82.1237C80.1918 80.8214 65.8404 81.6752 58.6561 81.5372C49.4105 82.2789 53.0846 93.5341 52.3084 99.6144C52.386 113.276 98.8641 102.15 100.839 122.038C100.132 133.846 105.626 151.612 89.2735 154.407C77.1904 154.571 65.1159 154.553 53.0415 154.338C44.6066 152.449 41.4758 146.231 41.9071 137.994ZM285.475 144.894C285.484 121.461 285.492 98.0275 285.484 74.5944C285.38 73.8268 285.57 73.1713 286.07 72.628C288.891 72.4468 291.711 72.3865 294.548 72.4382C295.299 72.3778 295.928 72.6193 296.446 73.1541C303.863 87.2898 311.28 101.426 318.697 115.561C320.672 119.244 322.716 122.875 324.821 126.437C325.355 126.299 325.744 125.98 325.985 125.48C335.213 108.006 344.588 90.6103 354.136 73.3093C354.791 72.5935 355.628 72.3002 356.62 72.421C358.931 72.4296 361.234 72.4382 363.545 72.4468C365.356 72.2744 365.037 74.3011 365.08 75.4655C365.089 101.357 365.072 127.248 365.046 153.147C364.951 154.027 364.46 154.484 363.571 154.51C361.001 154.571 358.431 154.493 355.878 154.277C355.49 153.984 355.309 153.596 355.335 153.096C355.326 133.225 355.309 113.353 355.266 93.4823C355.274 93.0511 355.119 92.6975 354.809 92.4129C352.489 96.1042 350.281 99.8818 348.202 103.763C341.932 115.328 335.722 126.92 329.582 138.546C328.978 139.917 327.934 140.504 326.442 140.305C324.51 139.952 321.173 141.202 320.198 138.891C312.134 123.66 304.156 108.386 296.256 93.0683C296.092 92.7665 295.842 92.594 295.497 92.5681C295.152 93.7152 295.014 94.9226 295.109 96.1646C295.169 115.147 295.169 134.139 295.083 153.122C295.005 153.967 294.548 154.415 293.694 154.458C291.124 154.562 288.563 154.502 286.019 154.295C285.63 153.993 285.449 153.596 285.484 153.096C285.518 150.362 285.518 147.628 285.475 144.894ZM446.825 139.719C446.807 117.502 446.868 95.2849 446.997 73.0678C447.515 72.5503 448.144 72.3433 448.895 72.4382C463.565 72.4123 478.236 72.421 492.897 72.4468C499.616 73.0764 503.747 76.6815 505.274 83.2449C505.843 91.1192 505.507 102.607 505.472 110.835C504.67 117.933 499.806 121.952 492.897 122.746C481.427 122.832 469.947 122.858 458.468 122.832C457.321 122.832 456.778 123.418 456.821 124.591C456.812 134.078 456.803 143.557 456.786 153.035C456.717 154.131 456.113 154.614 454.966 154.493C452.413 154.596 449.869 154.51 447.342 154.234C447.221 154.088 447.092 153.932 446.971 153.786C446.902 149.103 446.851 144.411 446.825 139.719ZM585.466 77.6216C585.647 76.4832 584.991 73.1541 586.164 72.5848C589.226 72.3692 592.279 72.3865 595.324 72.6538C595.427 72.7918 595.539 72.9385 595.643 73.0764C595.703 96.2939 595.703 119.52 595.643 142.738C595.634 143.919 595.565 145.765 597.29 145.558C610.511 145.497 623.724 145.541 636.929 145.696C637.507 146.308 637.731 147.041 637.584 147.895C637.274 149.172 638.162 153.76 636.877 154.346C620.507 154.536 604.129 154.588 587.751 154.502C586.949 154.614 586.25 154.398 585.664 153.872C585.526 128.464 585.457 103.047 585.466 77.6216ZM495.744 107.851C496.011 100.934 496.011 94.0084 495.769 87.0828C494.838 82.7619 491.906 81.5113 487.723 81.5372C477.718 81.4855 467.722 81.4423 457.718 81.3992C456.381 81.7356 456.907 84.7973 456.769 85.815C456.76 94.4483 456.769 103.082 456.795 111.715C456.674 112.569 456.941 113.259 457.606 113.767C468.498 113.888 479.4 113.888 490.301 113.759C493.769 113.095 494.855 110.999 495.744 107.851Z" fill="#EDEBE4"/>
  <path fill-rule="evenodd" clip-rule="evenodd" d="M192.942 71.5413L194.166 94.845L191.333 92.4225L188.5 90L187.206 78.0615C186.352 84.2454 185.49 90.4292 184.619 96.6131C183.325 105.358 182.109 114.112 180.971 122.875C180.789 123.867 180.237 124.548 179.323 124.919C179.047 124.462 178.043 124.876 177.5 124.867C172.61 124.669 163.445 124.514 163.445 124.514C160.648 124.632 155.263 125.869 155.907 122.004C156.002 121.124 156.485 120.633 157.356 120.512C163.394 120.486 169.439 120.495 175.485 120.538C176.262 120.572 176.736 120.219 176.917 119.468C180.608 94.6036 183.541 69.6439 186.706 44.7532C187.215 43.5458 191.475 43.3215 191.406 45.2966C192.079 54.0333 192.588 62.7787 192.942 71.5413ZM194.166 94.845C195.21 113.698 196.314 132.552 197.478 151.397C197.78 152.751 198.073 152.742 198.366 151.379C199.634 142.229 200.859 133.069 202.041 123.901C202.239 121.659 203.455 120.546 205.689 120.564C208.923 121.297 227.414 118.994 227.776 122.03C227.811 123.142 227.932 124.936 226.371 124.997C220.057 125.083 213.744 125.126 207.431 125.143C206.189 125.316 205.577 126.066 205.585 127.377C203.446 144.506 200.945 161.729 199.108 178.927C199.194 181.359 193.916 181.635 194.149 176.391C192.89 150.646 190.19 115.71 188.5 90L191.333 92.4225L194.166 94.845ZM759.692 147.481C759.726 130.586 757.277 128.291 775.803 129.275C784.35 129.318 780.236 144.368 781.176 149.611C780.003 157.098 770.895 154.26 765.608 154.864C761.529 154.726 759.2 151.405 759.692 147.481ZM776.958 149.172C777.139 144.307 777.148 139.434 776.984 134.561C775.88 131.681 768.765 133.371 766.307 132.966C764.53 133.069 763.754 134.018 763.961 135.829C763.961 139.857 763.97 143.893 763.987 147.921C763.788 149.706 764.556 150.707 766.29 150.948C768.877 150.991 771.473 151.017 774.069 151.017C775.475 151.104 776.441 150.483 776.958 149.172Z" fill="#EDEBE4"/>
  <path fill-rule="evenodd" clip-rule="evenodd" d="M698.06 145.756C698.112 140.754 698.103 135.76 698.051 130.758C697.724 128.723 701.148 128.973 702.157 129.723C702.761 130.353 702.217 131.681 703.295 131.612C708.22 128.257 719.027 126.834 719.958 134.993C718.871 140.642 723.21 154.053 714.628 154.778C710.85 155.493 707.323 154.847 704.037 152.854C703.589 152.647 703.114 152.604 702.631 152.725C702.519 155.718 702.441 158.728 702.39 161.763C702.122 163.532 697.543 163.67 698.086 160.815C698.086 155.795 698.077 150.776 698.06 145.756ZM702.416 138.003C702.493 148.456 700.518 151.699 712.834 151.009C714.43 151.034 715.404 150.293 715.741 148.775C715.835 144.195 715.81 139.624 715.68 135.044C715.197 133.716 714.231 133.078 712.791 133.121C708.996 132.949 702.079 132.371 702.416 138.003Z" fill="#EDEBE4"/>
  <path fill-rule="evenodd" clip-rule="evenodd" d="M733.68 137.994C733.645 135.269 733.723 132.543 733.913 129.835C734.249 129.421 734.68 129.223 735.224 129.249C740.174 128.904 736.552 131.646 738.51 132.664C740.502 130.137 743.193 128.843 746.488 129.171C749.084 128.973 749.006 132.595 747.367 133.147C744.443 133.138 738.182 133.44 738.122 137.546C738.113 139.745 738.458 153.449 737.682 154.295C736.655 154.752 734.525 155.123 733.801 154.001C733.749 148.671 733.706 143.333 733.68 137.994Z" fill="#EDEBE4"/>
  <path fill-rule="evenodd" clip-rule="evenodd" d="M662.018 148.344C662.829 138.279 677.249 139.728 675.188 150.396C672.411 157.348 662.363 156.295 662.018 148.344Z" fill="#89CFF0"/>
</svg>
